<svg xmlns="http://www.w3.org/2000/svg" width="512" height="512" viewBox="0 0 512 512">
  <rect width="512" height="512" rx="112" fill="#29262d" />
  <g transform="translate(88 88) scale(14)"><svg width="24" height="24" viewBox="0 0 24 24" fill="none" stroke="currentColor" stroke-linecap="round" stroke-linejoin="round" aria-hidden="true" color="#c2a9df"><g stroke-width="1"><g><path d="M2 20.66h4L14 6.8l-2-3.46Z" fill="#29262d" stroke="none"></path><path d="M2 20.66h4L14 6.8l-2-3.46Z" fill="currentColor" fill-opacity="0.12"></path></g><g><path d="m12 3.34-2 3.46 8 13.86h4Z" fill="#29262d" stroke="none"></path><path d="m12 3.34-2 3.46 8 13.86h4Z" fill="currentColor" fill-opacity="0.3"></path></g><g><path d="m22 20.66-2-3.46H4l-2 3.46Z" fill="#29262d" stroke="none"></path><path d="m22 20.66-2-3.46H4l-2 3.46Z" fill="currentColor" fill-opacity="0.2"></path></g><path d="M2 20.66h4l2-3.46H4Z" fill="#29262d" stroke="none"></path><path d="M2 20.66h4l2-3.46H4Z" fill="currentColor" fill-opacity=".12" stroke="none"></path><path d="M4 17.2 2 20.66h4l2-3.46"></path></g></svg></g>
</svg>
